<?xml version="1.0" encoding="UTF-8" standalone="no"?>
<!-- Generator: Adobe Illustrator 27.5.0, SVG Export Plug-In . SVG Version: 6.00 Build 0)  -->

<svg
   version="1.1"
   x="0px"
   y="0px"
   viewBox="0 0 500 500"
   style="enable-background:new 0 0 500 500;"
   xml:space="preserve"
   id="svg94"
   sodipodi:docname="catonly.svg"
   inkscape:version="1.3.2 (091e20e, 2023-11-25, custom)"
   xmlns:inkscape="http://www.inkscape.org/namespaces/inkscape"
   xmlns:sodipodi="http://sodipodi.sourceforge.net/DTD/sodipodi-0.dtd"
   xmlns="http://www.w3.org/2000/svg"
   xmlns:svg="http://www.w3.org/2000/svg"><defs
   id="defs94" /><sodipodi:namedview
   id="namedview94"
   pagecolor="#ffffff"
   bordercolor="#000000"
   borderopacity="0.25"
   inkscape:showpageshadow="2"
   inkscape:pageopacity="0.0"
   inkscape:pagecheckerboard="0"
   inkscape:deskcolor="#d1d1d1"
   inkscape:zoom="2.352"
   inkscape:cx="250"
   inkscape:cy="250"
   inkscape:window-width="2560"
   inkscape:window-height="1476"
   inkscape:window-x="2676"
   inkscape:window-y="-12"
   inkscape:window-maximized="1"
   inkscape:current-layer="svg94" />

<g
   id="OBJECTS"
   transform="translate(-21.683673,-3.8265306)">
	
	
		<radialGradient
   id="SVGID_1_"
   cx="249.34641"
   cy="294.40259"
   r="166.6973"
   gradientTransform="matrix(1.1788,0,0,0.0577,-28.101397,276.55376)"
   gradientUnits="userSpaceOnUse">
		<stop
   offset="0"
   style="stop-color:#E8E8D0"
   id="stop15" />
		<stop
   offset="1"
   style="stop-color:#FFFFFF"
   id="stop16" />
	</radialGradient>
	<rect
   x="65.032806"
   y="292.48267"
   style="fill:url(#SVGID_1_)"
   width="403.948"
   height="18.139"
   id="rect16" />
	
	
	
	
	<g
   id="g94">
		<g
   id="g56">
			
				<linearGradient
   id="SVGID_00000001656458010219115710000017700345630206098323_"
   gradientUnits="userSpaceOnUse"
   x1="339.48499"
   y1="323.46921"
   x2="329.01709"
   y2="271.65259"
   gradientTransform="matrix(0.997,-0.0771,0.0771,0.997,-20.1421,37.4584)">
				<stop
   offset="0"
   style="stop-color:#FFDA5E"
   id="stop55" />
				<stop
   offset="1"
   style="stop-color:#E89540"
   id="stop56" />
			</linearGradient>
			<path
   style="fill:url(#SVGID_00000001656458010219115710000017700345630206098323_)"
   d="m 339.484,344.14 c -11.712,0.906 -23.053,-3.951 -30.701,-13.474 -1.901,-2.366 -1.522,-5.825 0.844,-7.726 2.363,-1.9 5.825,-1.525 7.726,0.844 7.565,9.417 18.372,10.612 25.953,8.598 8.201,-2.181 13.807,-7.979 14.999,-15.512 1.904,-12.032 -4.163,-21.456 -9.516,-29.771 -2.991,-4.643 -5.572,-8.654 -6.507,-12.778 -0.67,-2.96 1.184,-5.903 4.145,-6.575 2.961,-0.67 5.903,1.185 6.574,4.145 0.507,2.234 2.704,5.646 5.028,9.258 5.777,8.975 13.689,21.265 11.13,37.438 -1.863,11.779 -10.689,21.134 -23.029,24.416 -2.213,0.59 -4.437,0.966 -6.646,1.137 z"
   id="path56" />
		</g>
		
			<linearGradient
   id="SVGID_00000054261669100141728110000017873855296369649828_"
   gradientUnits="userSpaceOnUse"
   x1="273.595"
   y1="270.02609"
   x2="273.595"
   y2="331.28531">
			<stop
   offset="0"
   style="stop-color:#FFDA5E"
   id="stop57" />
			<stop
   offset="1"
   style="stop-color:#E89540"
   id="stop58" />
		</linearGradient>
		<path
   style="fill:url(#SVGID_00000054261669100141728110000017873855296369649828_)"
   d="m 349.115,250.952 c -12.683,-21.749 -45.381,-22.542 -60.442,-16.597 -15.061,5.945 -35.945,14.37 -40.363,14.07 -20.079,-1.364 -46.378,21.601 -46.378,21.601 0,0 -9.57,5.945 -9.57,14.07 0,8.125 4.674,10.305 9.57,10.305 3.028,0 49.951,0 88.56,0 -2.745,1.151 -5.414,2.665 -4.891,4.063 1.189,3.177 7.697,3.574 13.919,2.237 5.552,-1.193 41.787,-1.465 49.694,-11.154 9.116,-11.172 5.688,-28.67 -0.099,-38.595 z"
   id="path58" />
		<path
   style="opacity:0.31;fill:#874732"
   d="m 261.386,244.857 -59.455,25.169 c 0,0 4.277,13.161 23.133,16.363 -0.001,0 -0.019,0.002 -0.019,0.002 4.197,0.482 7.896,4.314 7.715,8.011 h 4.715 c 0,0 1.197,-6.734 8.714,-8.591 0,0 0.007,-0.009 0.008,-0.01 29.477,-6.202 15.189,-40.944 15.189,-40.944 z"
   id="path59" />
		<g
   id="g66">
			<g
   id="g62">
				<g
   id="g61">
					
						<linearGradient
   id="SVGID_00000061432079561302906840000018223539163653740735_"
   gradientUnits="userSpaceOnUse"
   x1="217.6902"
   y1="177.6353"
   x2="217.6902"
   y2="226.20869"
   gradientTransform="matrix(0.8959,-0.4443,0.4443,0.8959,-70.8585,165.2147)">
						<stop
   offset="0"
   style="stop-color:#FFDA5E"
   id="stop59" />
						<stop
   offset="1"
   style="stop-color:#E89540"
   id="stop60" />
					</linearGradient>
					<path
   style="fill:url(#SVGID_00000061432079561302906840000018223539163653740735_)"
   d="m 202.456,250.655 c 0,0 -8.618,-15.321 -8.233,-29.791 0.047,-1.781 1.67,-3.098 3.419,-2.757 4.199,0.819 11.849,3.426 18.635,11.719 z"
   id="path60" />
					<path
   style="opacity:0.5;fill:#ff7c4f"
   d="m 203.504,242.928 c 0,0 -5.128,-9.117 -4.899,-17.727 0.028,-1.06 0.994,-1.844 2.034,-1.641 2.499,0.487 7.051,2.038 11.088,6.973 z"
   id="path61" />
				</g>
			</g>
			<g
   id="g65">
				<g
   id="g64">
					
						<linearGradient
   id="SVGID_00000114755797863337639130000008615171043888418467_"
   gradientUnits="userSpaceOnUse"
   x1="600.34698"
   y1="260.56949"
   x2="600.34698"
   y2="309.14511"
   gradientTransform="matrix(-0.9993,0.0365,0.0365,0.9993,829.5532,-63.8057)">
						<stop
   offset="0"
   style="stop-color:#FFDA5E"
   id="stop62" />
						<stop
   offset="1"
   style="stop-color:#E89540"
   id="stop63" />
					</linearGradient>
					<path
   style="fill:url(#SVGID_00000114755797863337639130000008615171043888418467_)"
   d="m 250.67,238.423 c 0,0 0.272,-17.577 -6.965,-30.113 -0.891,-1.543 -2.945,-1.927 -4.32,-0.794 -3.301,2.722 -8.783,8.66 -10.794,19.186 z"
   id="path63" />
					<path
   style="opacity:0.5;fill:#ff7c4f"
   d="m 246.065,232.13 c 0,0 0.162,-10.459 -4.144,-17.918 -0.53,-0.918 -1.753,-1.147 -2.57,-0.472 -1.964,1.62 -5.226,5.153 -6.423,11.416 z"
   id="path64" />
				</g>
			</g>
		</g>
		
			<linearGradient
   id="SVGID_00000033359635953803263090000000149636120485249189_"
   gradientUnits="userSpaceOnUse"
   x1="227.5311"
   y1="245.1971"
   x2="227.5311"
   y2="335.15341"
   gradientTransform="matrix(0.9693,-0.2459,0.2459,0.9693,-54.1837,63.1864)">
			<stop
   offset="0"
   style="stop-color:#FFDA5E"
   id="stop66" />
			<stop
   offset="1"
   style="stop-color:#E89540"
   id="stop67" />
		</linearGradient>
		<path
   style="fill:url(#SVGID_00000033359635953803263090000000149636120485249189_)"
   d="m 221.395,224.17 c -17.403,4.415 -26.754,25.669 -20.436,43.121 6.318,17.452 24.303,16.824 34.958,14.121 10.655,-2.703 26.765,-10.725 23.998,-29.079 -2.765,-18.353 -21.117,-32.578 -38.52,-28.163 z"
   id="path67" />
		<path
   style="fill:#fffbf7"
   d="m 241.077,259.879 c 1.062,4.188 -3.482,5.021 -8.994,6.419 -5.512,1.398 -9.904,2.832 -10.966,-1.355 -1.062,-4.188 2.545,-8.716 8.057,-10.114 5.511,-1.399 10.841,0.862 11.903,5.05 z"
   id="path68" />
		<g
   id="g70">
			<path
   style="fill:#874732"
   d="m 242.141,243.191 c -3.582,-0.219 -7.022,1.372 -9.159,4.257 -0.986,1.33 0.914,3.114 1.913,1.766 1.775,-2.396 4.334,-3.603 7.318,-3.421 1.675,0.103 1.588,-2.5 -0.072,-2.602 z"
   id="path69" />
			<path
   style="fill:#874732"
   d="m 212.985,250.588 c 3.044,-1.9 6.826,-2.141 10.081,-0.624 1.501,0.699 0.681,3.173 -0.84,2.464 -2.703,-1.26 -5.528,-1.101 -8.063,0.481 -1.424,0.889 -2.589,-1.44 -1.178,-2.321 z"
   id="path70" />
		</g>
		<g
   id="g71">
			<path
   style="fill:#874732"
   d="m 230.97,261.911 c -2.936,0.745 -5.374,-0.825 -5.541,-2.682 -0.167,-1.858 1.98,-2.287 4.141,-2.836 2.161,-0.548 4.254,-1.194 4.992,0.518 0.739,1.714 -0.656,4.256 -3.592,5 z"
   id="path71" />
		</g>
		<g
   style="opacity:0.55"
   id="g73">
			<path
   style="fill:#ff915e"
   d="m 220.637,260.004 c 0.838,3.304 -1.161,6.663 -4.465,7.501 -3.304,0.838 -6.663,-1.161 -7.501,-4.465 -0.838,-3.304 1.161,-6.663 4.465,-7.501 3.304,-0.838 6.663,1.161 7.501,4.465 z"
   id="path72" />
			<path
   style="fill:#ff915e"
   d="m 251.111,252.273 c 0.838,3.304 -1.161,6.663 -4.465,7.501 -3.304,0.838 -6.663,-1.161 -7.501,-4.465 -0.838,-3.304 1.161,-6.663 4.465,-7.501 3.304,-0.838 6.662,1.161 7.501,4.465 z"
   id="path73" />
		</g>
		<g
   id="g80">
			<g
   id="g76">
				<g
   id="g74">
					<path
   style="fill:#874732"
   d="m 204.457,265.053 c -0.144,0.036 -0.3,0.016 -0.435,-0.072 -0.253,-0.166 -0.325,-0.505 -0.159,-0.76 2.48,-3.806 7.38,-3.784 7.59,-3.78 0.302,0.002 0.545,0.252 0.541,0.555 -0.002,0.302 -0.235,0.556 -0.555,0.541 -0.041,0.001 -4.511,-0.008 -6.656,3.284 -0.078,0.121 -0.197,0.2 -0.326,0.232 z"
   id="path74" />
				</g>
				<g
   id="g75">
					<path
   style="fill:#874732"
   d="m 208.406,269.502 c -0.106,0.027 -0.217,0.024 -0.328,-0.018 -0.283,-0.105 -0.428,-0.421 -0.321,-0.707 1.174,-3.144 4.63,-4.898 4.777,-4.971 0.287,-0.142 0.603,-0.023 0.736,0.247 0.136,0.27 0.025,0.6 -0.247,0.736 -0.032,0.015 -3.217,1.638 -4.238,4.374 -0.066,0.176 -0.21,0.296 -0.379,0.339 z"
   id="path75" />
				</g>
			</g>
			<g
   id="g79">
				<g
   id="g77">
					<path
   style="fill:#874732"
   d="m 255.774,252.034 c -0.128,0.033 -0.27,0.021 -0.396,-0.048 -3.468,-1.883 -7.377,0.264 -7.417,0.286 -0.255,0.158 -0.597,0.056 -0.746,-0.211 -0.148,-0.264 -0.054,-0.6 0.211,-0.746 0.182,-0.104 4.486,-2.453 8.474,-0.295 0.267,0.145 0.366,0.477 0.222,0.744 -0.077,0.141 -0.204,0.233 -0.348,0.27 z"
   id="path76" />
				</g>
				<g
   id="g78">
					<path
   style="fill:#874732"
   d="m 254.423,257.827 c -0.169,0.043 -0.353,0.006 -0.495,-0.119 -2.199,-1.917 -5.775,-1.825 -5.81,-1.823 -0.304,0.01 -0.558,-0.227 -0.568,-0.529 -0.012,-0.304 0.207,-0.563 0.529,-0.568 0.164,-0.006 4.04,-0.112 6.569,2.095 0.23,0.198 0.253,0.544 0.052,0.773 -0.075,0.089 -0.171,0.145 -0.277,0.171 z"
   id="path77" />
				</g>
			</g>
		</g>
		<g
   style="opacity:0.31"
   id="g81">
			<path
   style="fill:#874732"
   d="m 233.607,270.931 c -2.37,0.601 -4.567,0.16 -4.706,0.13 -0.319,-0.068 -0.526,-0.382 -0.459,-0.703 0.066,-0.323 0.389,-0.527 0.702,-0.461 0.046,0.01 4.564,0.905 7.194,-1.797 0.232,-0.236 0.607,-0.243 0.84,-0.012 0.236,0.23 0.24,0.608 0.012,0.84 -1.062,1.09 -2.347,1.69 -3.583,2.003 z"
   id="path80" />
		</g>
		<g
   style="opacity:0.5"
   id="g83">
			<path
   style="fill:#ff7c4f"
   d="m 288.393,234.465 c 2.228,4.211 4.951,10.402 5.988,17.06 1.458,9.357 7.984,7.197 9.893,4.114 1.487,-2.402 2.817,-15.716 0.524,-24.355 -6.208,0.286 -11.878,1.395 -16.125,3.072 -0.092,0.035 -0.188,0.073 -0.28,0.109 z"
   id="path81" />
			<path
   style="fill:#ff7c4f"
   d="m 308.128,231.211 c 1.168,4.111 2.181,9.161 2.169,14.331 -0.023,9.469 6.761,8.357 9.128,5.61 1.456,-1.689 3.883,-10.121 4.395,-17.972 -5.209,-1.359 -10.575,-1.948 -15.692,-1.969 z"
   id="path82" />
			<path
   style="fill:#ff7c4f"
   d="m 279.061,260.056 c 3.467,8.812 9.364,5.279 10.553,1.853 0.999,-2.877 -0.95,-18.086 -5.821,-25.624 -5.29,2.092 -10.95,4.322 -16.202,6.298 3.132,3.369 8.453,9.806 11.47,17.473 z"
   id="path83" />
		</g>
		<path
   style="opacity:0.31;fill:#874732"
   d="m 290.491,294.401 c 0,0 12.202,-4.929 14.53,-9.611 1.595,-3.206 2.279,-18.488 10.952,-22.393 0,0 -10.902,0 -18.76,14.962 -5.915,11.262 -18.945,16.547 -24.593,17.043 7.878,-10e-4 17.871,-10e-4 17.871,-10e-4 z"
   id="path84" />
		<g
   style="opacity:0.5"
   id="g87">
			<path
   style="fill:#ff7c4f"
   d="m 347.354,330.867 c -1.273,0.598 -2.604,1.132 -4.048,1.516 -1.619,0.43 -3.391,0.702 -5.241,0.79 0.48,3.244 0.486,7.203 -0.961,11.067 0.791,-0.009 1.585,-0.038 2.381,-0.1 2.209,-0.172 4.433,-0.547 6.647,-1.136 0.432,-0.115 0.848,-0.254 1.271,-0.384 0.769,-4.279 0.541,-8.364 -0.049,-11.753 z"
   id="path85" />
			<path
   style="fill:#ff7c4f"
   d="m 320.777,340.447 c 2.918,1.477 6.018,2.525 9.22,3.144 1.897,-3.55 2.702,-7.292 2.83,-10.706 -3.268,-0.518 -6.603,-1.71 -9.724,-3.802 0.429,2.694 0.542,7.306 -2.326,11.364 z"
   id="path86" />
			<path
   style="fill:#ff7c4f"
   d="m 363.124,332.193 c -1.311,-5.191 -3.744,-9.419 -5.653,-12.135 -1.15,3.279 -3.197,6.119 -5.987,8.316 1.587,2.893 3.072,6.809 3.026,11.176 3.367,-1.953 6.276,-4.446 8.614,-7.357 z"
   id="path87" />
		</g>
		<g
   style="opacity:0.31"
   id="g89">
			<path
   style="fill:#874732"
   d="m 221.839,291.23 c -0.327,0 -0.594,0.265 -0.594,0.594 0,0.328 0.265,0.592 0.594,0.595 0.131,0 2.943,0.059 3.379,1.982 0.403,0 0.8,0 1.21,0 -0.341,-2.474 -3.081,-3.171 -4.589,-3.171 z"
   id="path88" />
			<path
   style="fill:#874732"
   d="m 230.777,294.393 c -0.06,-4.071 -4.803,-5.646 -5.005,-5.711 -0.307,-0.095 -0.646,0.072 -0.748,0.385 -0.1,0.311 0.072,0.646 0.385,0.748 0.04,0.012 4.118,1.363 4.176,4.586 0.39,0 0.792,0 1.187,0 0.002,-0.003 0.005,-0.005 0.005,-0.008 z"
   id="path89" />
		</g>
		<g
   style="opacity:0.31"
   id="g91">
			<path
   style="fill:#874732"
   d="m 240.469,294.401 c 0.651,-2.958 3.25,-4.106 3.376,-4.158 0.302,-0.13 0.441,-0.478 0.314,-0.78 -0.128,-0.3 -0.481,-0.446 -0.776,-0.316 -0.156,0.064 -3.419,1.511 -4.103,5.254 0.392,0 0.793,0 1.189,0 z"
   id="path90" />
			<path
   style="fill:#874732"
   d="m 246.221,292.342 c 0.286,-0.163 0.385,-0.525 0.223,-0.811 -0.16,-0.283 -0.523,-0.383 -0.806,-0.225 -0.096,0.052 -1.807,1.041 -2.536,3.095 0.431,0 0.87,0 1.305,0 0.635,-1.346 1.745,-2.021 1.814,-2.059 z"
   id="path91" />
		</g>
		<g
   style="opacity:0.31"
   id="g93">
			<path
   style="fill:#874732"
   d="m 294.465,297.31 c -0.15,0.055 -3.099,1.183 -4.759,3.774 0.418,0.085 0.839,0.165 1.297,0.215 1.494,-1.958 3.837,-2.861 3.868,-2.872 0.307,-0.112 0.467,-0.453 0.353,-0.762 -0.114,-0.309 -0.462,-0.46 -0.759,-0.355 z"
   id="path92" />
			<path
   style="fill:#874732"
   d="m 293.359,296.195 c -0.063,-0.32 -0.365,-0.525 -0.699,-0.467 -0.184,0.037 -3.83,0.815 -6.819,3.109 0.191,0.341 0.438,0.649 0.757,0.918 2.779,-2.111 6.254,-2.854 6.295,-2.861 0.322,-0.065 0.531,-0.379 0.466,-0.699 z"
   id="path93" />
		</g>
	</g>
</g>
<g
   id="DESIGNED_BY_FREEPIK"
   transform="translate(-2.5510204,-168.79252)">
	<g
   id="XMLID_76_">
		<g
   id="XMLID_929_">
			<path
   id="XMLID_958_"
   style="fill:#a8d1ff"
   d="m 181.087,472.134 c -0.246,0 -0.435,0.085 -0.567,0.255 -0.133,0.17 -0.199,0.421 -0.199,0.753 v 2.392 c -0.305,-0.331 -0.617,-0.579 -0.937,-0.739 -0.321,-0.159 -0.715,-0.24 -1.182,-0.24 -0.807,0 -1.458,0.283 -1.953,0.848 -0.494,0.566 -0.742,1.356 -0.742,2.369 0,0.478 0.063,0.923 0.187,1.335 0.124,0.412 0.307,0.77 0.549,1.074 0.241,0.305 0.527,0.539 0.857,0.703 0.33,0.164 0.689,0.246 1.078,0.246 0.293,0 0.563,-0.04 0.809,-0.122 0.248,-0.08 0.477,-0.199 0.689,-0.356 0.212,-0.156 0.427,-0.359 0.644,-0.608 v 0.16 c 0,0.297 0.072,0.525 0.217,0.685 0.145,0.161 0.328,0.24 0.549,0.24 0.226,0 0.409,-0.077 0.552,-0.231 0.143,-0.154 0.214,-0.386 0.214,-0.694 v -7.146 c 0,-0.305 -0.066,-0.534 -0.199,-0.691 -0.132,-0.155 -0.321,-0.233 -0.566,-0.233 z m -1.066,6.84 c -0.14,0.306 -0.328,0.533 -0.563,0.682 -0.236,0.149 -0.496,0.223 -0.781,0.223 -0.281,0 -0.539,-0.079 -0.777,-0.236 -0.237,-0.155 -0.424,-0.387 -0.561,-0.696 -0.136,-0.309 -0.204,-0.682 -0.204,-1.122 0,-0.415 0.063,-0.78 0.193,-1.095 0.128,-0.315 0.309,-0.556 0.543,-0.724 0.233,-0.168 0.499,-0.253 0.795,-0.253 0.285,0 0.547,0.082 0.786,0.246 0.239,0.165 0.429,0.402 0.569,0.712 0.141,0.311 0.21,0.682 0.21,1.114 0.001,0.459 -0.069,0.842 -0.21,1.149 z" />
			<path
   id="XMLID_954_"
   style="fill:#a8d1ff"
   d="m 188.452,478.054 c 0.233,-0.122 0.35,-0.385 0.35,-0.793 0,-0.438 -0.114,-0.87 -0.339,-1.294 -0.225,-0.423 -0.564,-0.769 -1.018,-1.035 -0.453,-0.268 -0.996,-0.4 -1.628,-0.4 -0.487,0 -0.93,0.078 -1.33,0.234 -0.4,0.157 -0.737,0.381 -1.009,0.674 -0.273,0.293 -0.48,0.644 -0.623,1.054 -0.143,0.409 -0.214,0.853 -0.214,1.332 0,1.017 0.289,1.822 0.867,2.415 0.577,0.592 1.387,0.89 2.427,0.89 0.455,0 0.858,-0.059 1.207,-0.178 0.352,-0.12 0.641,-0.268 0.873,-0.448 0.231,-0.18 0.404,-0.368 0.519,-0.564 0.115,-0.197 0.172,-0.367 0.172,-0.514 0,-0.166 -0.052,-0.294 -0.155,-0.386 -0.102,-0.09 -0.237,-0.137 -0.403,-0.137 -0.154,0 -0.273,0.035 -0.356,0.107 -0.203,0.19 -0.366,0.34 -0.493,0.452 -0.126,0.111 -0.265,0.215 -0.415,0.312 -0.15,0.098 -0.305,0.167 -0.466,0.214 -0.16,0.045 -0.337,0.067 -0.531,0.067 -0.289,0 -0.553,-0.07 -0.792,-0.213 -0.239,-0.142 -0.432,-0.354 -0.576,-0.635 -0.145,-0.281 -0.219,-0.605 -0.222,-0.973 h 3.168 c 0.425,0 0.754,-0.061 0.987,-0.181 z m -4.155,-0.739 c 0.056,-0.546 0.212,-0.959 0.472,-1.238 0.259,-0.28 0.59,-0.418 0.994,-0.418 0.423,0 0.764,0.137 1.024,0.412 0.259,0.275 0.409,0.69 0.448,1.244 z" />
			<path
   id="XMLID_952_"
   style="fill:#a8d1ff"
   d="m 193.879,477.617 c -0.319,-0.17 -0.729,-0.316 -1.231,-0.439 -0.425,-0.103 -0.756,-0.19 -0.997,-0.261 -0.242,-0.07 -0.434,-0.16 -0.577,-0.27 -0.142,-0.109 -0.213,-0.248 -0.213,-0.419 0,-0.186 0.096,-0.341 0.29,-0.465 0.194,-0.126 0.437,-0.187 0.73,-0.187 0.286,0 0.511,0.047 0.677,0.142 0.166,0.095 0.31,0.222 0.433,0.38 0.151,0.19 0.284,0.332 0.401,0.427 0.116,0.095 0.258,0.143 0.423,0.143 0.231,0 0.408,-0.06 0.532,-0.178 0.124,-0.119 0.186,-0.271 0.186,-0.457 0,-0.171 -0.058,-0.345 -0.175,-0.523 -0.116,-0.178 -0.286,-0.34 -0.51,-0.486 -0.223,-0.146 -0.502,-0.264 -0.837,-0.35 -0.333,-0.088 -0.71,-0.131 -1.13,-0.131 -0.535,0 -0.99,0.085 -1.367,0.259 -0.378,0.172 -0.665,0.403 -0.859,0.691 -0.194,0.289 -0.291,0.596 -0.291,0.92 0,0.364 0.105,0.671 0.315,0.92 0.21,0.249 0.489,0.45 0.84,0.602 0.35,0.152 0.804,0.298 1.362,0.436 0.494,0.12 0.849,0.244 1.066,0.375 0.216,0.131 0.323,0.338 0.323,0.622 0,0.187 -0.104,0.352 -0.311,0.497 -0.208,0.144 -0.474,0.216 -0.798,0.216 -0.4,0 -0.715,-0.071 -0.947,-0.213 -0.231,-0.143 -0.431,-0.358 -0.597,-0.647 -0.082,-0.15 -0.17,-0.267 -0.261,-0.35 -0.091,-0.082 -0.221,-0.124 -0.391,-0.124 -0.194,0 -0.355,0.064 -0.481,0.19 -0.128,0.126 -0.19,0.278 -0.19,0.456 0,0.27 0.099,0.537 0.297,0.805 0.198,0.266 0.505,0.489 0.92,0.667 0.415,0.178 0.914,0.267 1.495,0.267 0.61,0 1.127,-0.082 1.552,-0.246 0.425,-0.164 0.747,-0.406 0.964,-0.724 0.218,-0.319 0.327,-0.702 0.327,-1.149 0,-0.297 -0.082,-0.56 -0.246,-0.791 -0.165,-0.234 -0.407,-0.435 -0.724,-0.605 z" />
			<path
   id="XMLID_950_"
   style="fill:#a8d1ff"
   d="m 196.486,474.543 c -0.237,0 -0.43,0.081 -0.578,0.243 -0.149,0.162 -0.222,0.404 -0.222,0.724 v 4.635 c 0,0.317 0.073,0.56 0.222,0.73 0.148,0.17 0.341,0.255 0.578,0.255 0.238,0 0.433,-0.083 0.588,-0.249 0.154,-0.166 0.231,-0.412 0.231,-0.737 v -4.682 c 0,-0.289 -0.077,-0.514 -0.231,-0.677 -0.155,-0.161 -0.35,-0.242 -0.588,-0.242 z" />
			<path
   id="XMLID_949_"
   style="fill:#a8d1ff"
   d="m 196.504,472.204 c -0.217,0 -0.409,0.073 -0.573,0.223 -0.164,0.149 -0.246,0.337 -0.246,0.567 0,0.254 0.08,0.45 0.24,0.588 0.16,0.139 0.353,0.208 0.579,0.208 0.217,0 0.405,-0.071 0.563,-0.211 0.158,-0.14 0.238,-0.335 0.238,-0.585 0,-0.257 -0.081,-0.453 -0.243,-0.588 -0.162,-0.134 -0.348,-0.202 -0.558,-0.202 z" />
			<path
   id="XMLID_945_"
   style="fill:#a8d1ff"
   d="m 203.626,474.543 c -0.217,0 -0.395,0.078 -0.535,0.231 -0.139,0.155 -0.208,0.372 -0.208,0.653 v 0.22 c -0.289,-0.376 -0.602,-0.652 -0.937,-0.829 -0.337,-0.175 -0.735,-0.264 -1.194,-0.264 -0.384,0 -0.736,0.068 -1.056,0.204 -0.32,0.137 -0.604,0.34 -0.849,0.609 -0.245,0.268 -0.433,0.599 -0.566,0.992 -0.133,0.391 -0.199,0.831 -0.199,1.318 0,0.653 0.109,1.228 0.327,1.727 0.217,0.499 0.529,0.886 0.934,1.163 0.407,0.277 0.88,0.416 1.422,0.416 0.45,0 0.84,-0.091 1.165,-0.273 0.327,-0.182 0.615,-0.447 0.864,-0.796 -0.008,0.531 -0.02,0.915 -0.035,1.155 -0.016,0.24 -0.07,0.464 -0.163,0.673 -0.093,0.21 -0.255,0.374 -0.486,0.49 -0.231,0.117 -0.557,0.175 -0.977,0.175 -0.205,0 -0.388,-0.02 -0.546,-0.056 -0.159,-0.038 -0.294,-0.095 -0.406,-0.172 -0.112,-0.078 -0.216,-0.17 -0.309,-0.279 -0.093,-0.109 -0.183,-0.217 -0.27,-0.324 -0.178,-0.209 -0.386,-0.314 -0.624,-0.314 -0.189,0 -0.352,0.062 -0.486,0.187 -0.135,0.124 -0.202,0.285 -0.202,0.483 0,0.262 0.119,0.516 0.356,0.763 0.238,0.247 0.576,0.449 1.014,0.605 0.439,0.156 0.938,0.234 1.496,0.234 0.609,0 1.119,-0.061 1.528,-0.184 0.409,-0.122 0.741,-0.311 0.994,-0.563 0.253,-0.254 0.437,-0.574 0.552,-0.961 0.115,-0.389 0.173,-0.851 0.173,-1.389 v -4.706 c 0,-0.384 -0.051,-0.678 -0.155,-0.882 -0.102,-0.204 -0.31,-0.306 -0.622,-0.306 z m -1.027,4.365 c -0.151,0.291 -0.345,0.508 -0.586,0.653 -0.239,0.144 -0.493,0.217 -0.762,0.217 -0.455,0 -0.826,-0.168 -1.113,-0.505 -0.287,-0.336 -0.43,-0.834 -0.43,-1.49 0,-0.649 0.139,-1.15 0.418,-1.502 0.279,-0.352 0.649,-0.528 1.113,-0.528 0.475,0 0.857,0.184 1.148,0.553 0.291,0.367 0.436,0.882 0.436,1.543 0.002,0.416 -0.074,0.768 -0.224,1.059 z" />
			<path
   id="XMLID_944_"
   style="fill:#a8d1ff"
   d="m 210.978,475.611 c -0.165,-0.339 -0.417,-0.602 -0.753,-0.788 -0.337,-0.186 -0.718,-0.28 -1.146,-0.28 -0.439,0 -0.827,0.088 -1.166,0.264 -0.339,0.176 -0.65,0.452 -0.935,0.828 v -0.196 c 0,-0.193 -0.034,-0.358 -0.104,-0.493 -0.07,-0.134 -0.162,-0.234 -0.276,-0.302 -0.115,-0.068 -0.244,-0.101 -0.387,-0.101 -0.233,0 -0.417,0.076 -0.552,0.228 -0.134,0.153 -0.201,0.383 -0.201,0.692 v 4.682 c 0,0.317 0.076,0.56 0.226,0.73 0.15,0.17 0.342,0.255 0.576,0.255 0.241,0 0.438,-0.082 0.59,-0.246 0.152,-0.164 0.228,-0.411 0.228,-0.74 v -2.03 c 0,-0.661 0.04,-1.111 0.119,-1.353 0.11,-0.3 0.284,-0.537 0.522,-0.71 0.237,-0.173 0.5,-0.258 0.788,-0.258 0.444,0 0.74,0.142 0.888,0.425 0.148,0.283 0.223,0.691 0.223,1.225 v 2.7 c 0,0.317 0.074,0.56 0.226,0.73 0.15,0.17 0.345,0.255 0.587,0.255 0.238,0 0.431,-0.083 0.579,-0.249 0.149,-0.166 0.223,-0.412 0.223,-0.737 v -3.015 c 0,-0.356 -0.016,-0.648 -0.048,-0.878 -0.03,-0.226 -0.1,-0.44 -0.207,-0.638 z" />
			<path
   id="XMLID_939_"
   style="fill:#a8d1ff"
   d="m 217.821,478.054 c 0.234,-0.122 0.35,-0.385 0.35,-0.793 0,-0.438 -0.113,-0.87 -0.338,-1.294 -0.226,-0.423 -0.565,-0.769 -1.019,-1.035 -0.453,-0.268 -0.995,-0.4 -1.628,-0.4 -0.487,0 -0.93,0.078 -1.33,0.234 -0.4,0.157 -0.736,0.381 -1.009,0.674 -0.273,0.293 -0.481,0.644 -0.624,1.054 -0.142,0.409 -0.214,0.853 -0.214,1.332 0,1.017 0.289,1.822 0.867,2.415 0.578,0.592 1.387,0.89 2.427,0.89 0.455,0 0.858,-0.059 1.208,-0.178 0.35,-0.12 0.64,-0.268 0.871,-0.448 0.232,-0.18 0.405,-0.368 0.52,-0.564 0.115,-0.197 0.172,-0.367 0.172,-0.514 0,-0.166 -0.051,-0.294 -0.154,-0.386 -0.103,-0.09 -0.238,-0.137 -0.404,-0.137 -0.154,0 -0.273,0.035 -0.356,0.107 -0.201,0.19 -0.366,0.34 -0.492,0.452 -0.128,0.111 -0.266,0.215 -0.416,0.312 -0.151,0.098 -0.306,0.167 -0.466,0.214 -0.161,0.045 -0.338,0.067 -0.532,0.067 -0.289,0 -0.553,-0.07 -0.792,-0.213 -0.239,-0.142 -0.431,-0.354 -0.575,-0.635 -0.145,-0.281 -0.218,-0.605 -0.223,-0.973 h 3.169 c 0.427,0 0.755,-0.061 0.988,-0.181 z m -4.154,-0.739 c 0.055,-0.546 0.212,-0.959 0.471,-1.238 0.259,-0.28 0.591,-0.418 0.995,-0.418 0.423,0 0.765,0.137 1.024,0.412 0.259,0.275 0.409,0.69 0.448,1.244 z" />
			<path
   id="XMLID_936_"
   style="fill:#a8d1ff"
   d="m 224.207,472.134 c -0.245,0 -0.434,0.085 -0.567,0.255 -0.132,0.17 -0.2,0.421 -0.2,0.753 v 2.392 c -0.304,-0.331 -0.616,-0.579 -0.937,-0.739 -0.32,-0.159 -0.714,-0.24 -1.181,-0.24 -0.807,0 -1.458,0.283 -1.953,0.848 -0.495,0.566 -0.741,1.356 -0.741,2.369 0,0.478 0.062,0.923 0.187,1.335 0.124,0.412 0.307,0.77 0.549,1.074 0.241,0.305 0.527,0.539 0.857,0.703 0.33,0.164 0.689,0.246 1.077,0.246 0.293,0 0.563,-0.04 0.81,-0.122 0.247,-0.08 0.476,-0.199 0.688,-0.356 0.211,-0.156 0.426,-0.359 0.643,-0.608 v 0.16 c 0,0.297 0.073,0.525 0.217,0.685 0.145,0.161 0.328,0.24 0.549,0.24 0.226,0 0.41,-0.077 0.552,-0.231 0.143,-0.154 0.214,-0.386 0.214,-0.694 v -7.146 c 0,-0.305 -0.066,-0.534 -0.199,-0.691 -0.132,-0.155 -0.32,-0.233 -0.565,-0.233 z m -1.066,6.84 c -0.14,0.306 -0.328,0.533 -0.564,0.682 -0.235,0.149 -0.495,0.223 -0.781,0.223 -0.281,0 -0.54,-0.079 -0.776,-0.236 -0.238,-0.155 -0.425,-0.387 -0.561,-0.696 -0.137,-0.309 -0.205,-0.682 -0.205,-1.122 0,-0.415 0.064,-0.78 0.193,-1.095 0.129,-0.315 0.31,-0.556 0.543,-0.724 0.233,-0.168 0.499,-0.253 0.795,-0.253 0.285,0 0.547,0.082 0.787,0.246 0.239,0.165 0.43,0.402 0.57,0.712 0.14,0.311 0.21,0.682 0.21,1.114 0,0.459 -0.071,0.842 -0.211,1.149 z" />
			<path
   id="XMLID_933_"
   style="fill:#a8d1ff"
   d="m 233.586,474.937 c -0.406,-0.254 -0.878,-0.382 -1.416,-0.382 -0.467,0 -0.859,0.084 -1.175,0.252 -0.317,0.168 -0.627,0.411 -0.932,0.727 v -2.475 c 0,-0.297 -0.068,-0.524 -0.202,-0.685 -0.134,-0.16 -0.326,-0.24 -0.576,-0.24 -0.237,0 -0.423,0.084 -0.555,0.252 -0.132,0.168 -0.198,0.416 -0.198,0.745 v 7.075 c 0,0.305 0.068,0.535 0.205,0.692 0.136,0.156 0.319,0.234 0.549,0.234 0.226,0 0.412,-0.077 0.558,-0.234 0.146,-0.157 0.22,-0.388 0.22,-0.692 v -0.16 c 0.178,0.205 0.322,0.361 0.43,0.463 0.109,0.103 0.241,0.203 0.395,0.3 0.154,0.098 0.341,0.175 0.561,0.234 0.22,0.06 0.454,0.089 0.704,0.089 0.407,0 0.781,-0.082 1.118,-0.246 0.338,-0.164 0.626,-0.397 0.864,-0.698 0.237,-0.3 0.418,-0.656 0.543,-1.065 0.125,-0.41 0.187,-0.859 0.187,-1.35 0,-0.665 -0.112,-1.241 -0.336,-1.725 -0.225,-0.485 -0.539,-0.855 -0.944,-1.111 z m -0.79,4.411 c -0.295,0.354 -0.646,0.531 -1.053,0.531 -0.479,0 -0.866,-0.174 -1.161,-0.521 -0.295,-0.346 -0.442,-0.841 -0.442,-1.487 0,-0.439 0.069,-0.818 0.208,-1.136 0.138,-0.319 0.328,-0.562 0.57,-0.73 0.24,-0.168 0.516,-0.253 0.825,-0.253 0.3,0 0.564,0.085 0.79,0.253 0.225,0.168 0.399,0.406 0.522,0.715 0.123,0.308 0.184,0.677 0.184,1.104 -0.001,0.662 -0.149,1.169 -0.443,1.524 z" />
			<path
   id="XMLID_931_"
   style="fill:#a8d1ff"
   d="m 240.529,474.641 c -0.112,-0.066 -0.23,-0.098 -0.353,-0.098 -0.171,0 -0.303,0.03 -0.395,0.09 -0.093,0.058 -0.181,0.173 -0.264,0.344 -0.083,0.17 -0.176,0.406 -0.279,0.706 l -1.3,3.71 -1.371,-3.988 c -0.091,-0.277 -0.195,-0.489 -0.314,-0.638 -0.119,-0.148 -0.295,-0.223 -0.529,-0.223 -0.135,0 -0.264,0.035 -0.389,0.107 -0.124,0.071 -0.222,0.166 -0.294,0.285 -0.071,0.118 -0.107,0.247 -0.107,0.385 0,0.13 0.062,0.341 0.184,0.628 l 1.994,5.022 -0.148,0.362 c -0.111,0.265 -0.209,0.466 -0.294,0.601 -0.085,0.138 -0.181,0.234 -0.288,0.289 -0.107,0.056 -0.254,0.084 -0.44,0.084 -0.074,0 -0.163,-0.012 -0.266,-0.035 -0.083,-0.024 -0.168,-0.037 -0.256,-0.037 -0.221,0 -0.388,0.051 -0.5,0.152 -0.114,0.101 -0.17,0.245 -0.17,0.43 0,0.273 0.118,0.461 0.356,0.564 0.237,0.103 0.593,0.154 1.068,0.154 0.487,0 0.873,-0.074 1.161,-0.223 0.287,-0.148 0.517,-0.361 0.691,-0.638 0.174,-0.277 0.353,-0.658 0.535,-1.145 l 2.113,-5.532 c 0.051,-0.142 0.095,-0.283 0.13,-0.421 0.037,-0.139 0.061,-0.246 0.078,-0.321 0,-0.123 -0.032,-0.239 -0.093,-0.35 -0.06,-0.111 -0.147,-0.199 -0.26,-0.264 z" />
		</g>
		<g
   id="XMLID_365_">
			<g
   id="XMLID_380_">
				<path
   id="XMLID_928_"
   style="fill:#a8d1ff"
   d="m 262.93,472.129 c -0.533,0 -0.954,0.069 -1.26,0.204 -0.307,0.137 -0.527,0.354 -0.654,0.652 -0.129,0.301 -0.191,0.702 -0.191,1.211 v 0.487 h -0.387 c -0.543,0 -0.815,0.192 -0.815,0.582 0,0.174 0.066,0.316 0.196,0.424 0.132,0.111 0.316,0.163 0.558,0.163 h 0.447 v 4.294 c 0,0.319 0.074,0.563 0.227,0.73 0.154,0.17 0.344,0.254 0.574,0.254 0.243,0 0.438,-0.084 0.589,-0.254 0.156,-0.167 0.231,-0.411 0.231,-0.73 v -4.294 h 0.395 c 0.29,0 0.517,-0.035 0.68,-0.107 0.166,-0.071 0.245,-0.24 0.245,-0.502 0,-0.374 -0.306,-0.56 -0.926,-0.56 h -0.395 v -0.386 c 0,-0.322 0.043,-0.568 0.122,-0.74 0.087,-0.172 0.273,-0.259 0.566,-0.259 0.107,0 0.241,0.014 0.389,0.034 0.156,0.026 0.267,0.038 0.33,0.038 0.134,0 0.252,-0.054 0.348,-0.16 0.101,-0.107 0.15,-0.236 0.15,-0.384 0.001,-0.467 -0.47,-0.697 -1.419,-0.697 z" />
				<path
   id="XMLID_926_"
   style="fill:#a8d1ff"
   d="m 268.089,474.795 c -0.32,-0.171 -0.648,-0.255 -0.99,-0.255 -0.342,0 -0.611,0.084 -0.818,0.255 -0.203,0.171 -0.4,0.421 -0.592,0.755 -0.014,-0.334 -0.08,-0.584 -0.198,-0.755 -0.119,-0.171 -0.312,-0.255 -0.583,-0.255 -0.525,0 -0.788,0.364 -0.788,1.093 v 4.513 c 0,0.323 0.078,0.569 0.225,0.733 0.15,0.169 0.34,0.25 0.579,0.25 0.237,0 0.432,-0.081 0.586,-0.247 0.151,-0.163 0.234,-0.41 0.234,-0.737 v -1.355 c 0,-0.486 0.014,-0.899 0.045,-1.239 0.034,-0.336 0.09,-0.63 0.17,-0.878 0.084,-0.243 0.201,-0.425 0.353,-0.553 0.149,-0.122 0.345,-0.186 0.582,-0.186 0.172,0 0.374,0.037 0.602,0.108 0.226,0.073 0.37,0.112 0.433,0.112 0.157,0 0.304,-0.064 0.441,-0.195 0.135,-0.126 0.204,-0.292 0.204,-0.488 -0.003,-0.278 -0.163,-0.505 -0.485,-0.676 z" />
				<path
   id="XMLID_922_"
   style="fill:#a8d1ff"
   d="m 274.176,478.052 c 0.233,-0.122 0.351,-0.386 0.351,-0.791 0,-0.441 -0.113,-0.87 -0.339,-1.296 -0.222,-0.423 -0.566,-0.77 -1.018,-1.034 -0.453,-0.27 -0.997,-0.403 -1.629,-0.403 -0.488,0 -0.931,0.078 -1.33,0.233 -0.402,0.156 -0.735,0.38 -1.007,0.674 -0.276,0.295 -0.484,0.643 -0.624,1.055 -0.144,0.41 -0.217,0.855 -0.217,1.333 0,1.017 0.292,1.823 0.87,2.418 0.577,0.593 1.385,0.888 2.429,0.888 0.453,0 0.857,-0.06 1.207,-0.179 0.349,-0.117 0.639,-0.268 0.874,-0.446 0.233,-0.182 0.405,-0.368 0.522,-0.566 0.112,-0.195 0.167,-0.365 0.167,-0.512 0,-0.167 -0.048,-0.294 -0.152,-0.386 -0.105,-0.092 -0.238,-0.139 -0.406,-0.139 -0.152,0 -0.271,0.038 -0.355,0.109 -0.202,0.189 -0.367,0.34 -0.494,0.449 -0.128,0.113 -0.264,0.217 -0.415,0.312 -0.15,0.097 -0.307,0.17 -0.466,0.213 -0.16,0.048 -0.336,0.069 -0.531,0.069 -0.29,0 -0.552,-0.07 -0.793,-0.212 -0.24,-0.145 -0.431,-0.356 -0.578,-0.635 -0.144,-0.281 -0.216,-0.607 -0.221,-0.974 h 3.171 c 0.423,10e-4 0.751,-0.059 0.984,-0.18 z m -4.155,-0.74 c 0.054,-0.546 0.213,-0.957 0.472,-1.236 0.259,-0.28 0.591,-0.417 0.995,-0.417 0.426,0 0.764,0.136 1.025,0.413 0.26,0.273 0.407,0.688 0.446,1.241 h -2.938 z" />
				<path
   id="XMLID_919_"
   style="fill:#a8d1ff"
   d="m 280.916,478.052 c 0.231,-0.122 0.351,-0.386 0.351,-0.791 0,-0.441 -0.116,-0.87 -0.34,-1.296 -0.222,-0.423 -0.563,-0.77 -1.013,-1.034 -0.46,-0.27 -1.003,-0.403 -1.633,-0.403 -0.486,0 -0.932,0.078 -1.33,0.233 -0.401,0.156 -0.736,0.38 -1.009,0.674 -0.273,0.295 -0.481,0.643 -0.622,1.055 -0.145,0.41 -0.217,0.855 -0.217,1.333 0,1.017 0.29,1.823 0.868,2.418 0.58,0.593 1.387,0.888 2.429,0.888 0.453,0 0.86,-0.06 1.208,-0.179 0.347,-0.117 0.641,-0.268 0.872,-0.446 0.234,-0.182 0.408,-0.368 0.519,-0.566 0.117,-0.195 0.171,-0.365 0.171,-0.512 0,-0.167 -0.047,-0.294 -0.15,-0.386 -0.104,-0.092 -0.238,-0.139 -0.406,-0.139 -0.151,0 -0.27,0.038 -0.355,0.109 -0.203,0.189 -0.368,0.34 -0.492,0.449 -0.128,0.113 -0.264,0.217 -0.415,0.312 -0.152,0.097 -0.307,0.17 -0.469,0.213 -0.157,0.048 -0.336,0.069 -0.528,0.069 -0.291,0 -0.555,-0.07 -0.795,-0.212 -0.239,-0.145 -0.431,-0.356 -0.575,-0.635 -0.144,-0.281 -0.218,-0.607 -0.222,-0.974 h 3.17 c 0.421,10e-4 0.749,-0.059 0.983,-0.18 z m -4.154,-0.74 c 0.053,-0.546 0.211,-0.957 0.469,-1.236 0.261,-0.28 0.592,-0.417 0.995,-0.417 0.425,0 0.763,0.136 1.027,0.413 0.257,0.273 0.407,0.688 0.447,1.241 h -2.938 z" />
				<path
   id="XMLID_390_"
   style="fill:#a8d1ff"
   d="m 286.926,474.937 c -0.42,-0.256 -0.882,-0.386 -1.379,-0.386 -0.415,0 -0.79,0.089 -1.114,0.267 -0.331,0.176 -0.649,0.452 -0.952,0.828 v -0.195 c 0,-0.296 -0.071,-0.519 -0.218,-0.677 -0.143,-0.156 -0.329,-0.234 -0.56,-0.234 -0.233,0 -0.419,0.078 -0.553,0.228 -0.134,0.155 -0.2,0.382 -0.2,0.692 v 6.995 c 0,0.355 0.051,0.62 0.146,0.807 0.102,0.183 0.301,0.275 0.607,0.275 0.518,0 0.778,-0.359 0.778,-1.068 v -2.433 c 0.287,0.358 0.586,0.634 0.901,0.816 0.314,0.187 0.704,0.279 1.165,0.279 0.385,0 0.741,-0.076 1.079,-0.227 0.334,-0.153 0.622,-0.372 0.868,-0.654 0.245,-0.283 0.441,-0.632 0.58,-1.05 0.14,-0.419 0.21,-0.878 0.21,-1.376 0,-0.677 -0.122,-1.261 -0.366,-1.758 -0.243,-0.494 -0.572,-0.87 -0.992,-1.129 z m -0.475,4.003 c -0.137,0.313 -0.32,0.546 -0.552,0.704 -0.229,0.154 -0.48,0.232 -0.748,0.232 -0.454,0 -0.828,-0.179 -1.133,-0.536 -0.306,-0.358 -0.46,-0.862 -0.46,-1.504 0,-0.686 0.154,-1.204 0.462,-1.558 0.306,-0.35 0.684,-0.527 1.13,-0.527 0.281,0 0.541,0.084 0.77,0.248 0.229,0.163 0.411,0.397 0.541,0.705 0.13,0.306 0.197,0.674 0.197,1.101 0,0.443 -0.069,0.821 -0.207,1.135 z" />
				<path
   id="XMLID_389_"
   style="fill:#a8d1ff"
   d="m 289.9,474.54 c -0.238,0 -0.428,0.079 -0.58,0.245 -0.146,0.162 -0.222,0.403 -0.222,0.721 v 4.641 c 0,0.313 0.076,0.555 0.222,0.729 0.152,0.17 0.342,0.254 0.58,0.254 0.238,0 0.432,-0.082 0.588,-0.25 0.154,-0.165 0.231,-0.41 0.231,-0.732 v -4.688 c 0,-0.287 -0.078,-0.512 -0.231,-0.675 -0.156,-0.166 -0.35,-0.245 -0.588,-0.245 z" />
				<path
   id="XMLID_388_"
   style="fill:#a8d1ff"
   d="m 289.917,472.199 c -0.217,0 -0.408,0.076 -0.571,0.223 -0.166,0.149 -0.248,0.339 -0.248,0.568 0,0.253 0.081,0.447 0.242,0.586 0.159,0.138 0.35,0.209 0.577,0.209 0.22,0 0.408,-0.071 0.566,-0.209 0.157,-0.14 0.236,-0.335 0.236,-0.585 0,-0.257 -0.082,-0.454 -0.244,-0.591 -0.161,-0.133 -0.345,-0.201 -0.558,-0.201 z" />
				<path
   id="XMLID_387_"
   style="fill:#a8d1ff"
   d="m 297.258,479.569 -1.662,-2.614 0.86,-0.789 c 0.438,-0.395 0.659,-0.714 0.659,-0.951 0,-0.192 -0.068,-0.355 -0.2,-0.483 -0.139,-0.128 -0.306,-0.193 -0.51,-0.193 -0.168,0 -0.312,0.043 -0.431,0.13 -0.121,0.086 -0.29,0.251 -0.517,0.486 l -1.822,1.914 v -3.933 c 0,-0.329 -0.074,-0.582 -0.221,-0.751 -0.148,-0.172 -0.344,-0.258 -0.593,-0.258 -0.255,0 -0.457,0.093 -0.596,0.283 -0.135,0.189 -0.207,0.462 -0.207,0.821 v 6.913 c 0,0.323 0.073,0.569 0.215,0.733 0.141,0.169 0.339,0.25 0.588,0.25 0.213,0 0.406,-0.084 0.566,-0.254 0.165,-0.167 0.248,-0.406 0.248,-0.718 v -1.291 l 0.88,-0.83 1.427,2.353 c 0.181,0.278 0.33,0.471 0.436,0.58 0.106,0.109 0.26,0.16 0.458,0.16 0.226,0 0.413,-0.073 0.553,-0.221 0.142,-0.151 0.214,-0.352 0.214,-0.61 0,-0.089 -0.029,-0.19 -0.082,-0.289 -0.051,-0.098 -0.142,-0.242 -0.263,-0.438 z" />
				<path
   id="XMLID_386_"
   style="fill:#a8d1ff"
   d="m 299.45,479.343 c -0.25,0 -0.458,0.087 -0.63,0.261 -0.17,0.173 -0.256,0.381 -0.256,0.622 0,0.287 0.09,0.51 0.268,0.665 0.179,0.159 0.389,0.238 0.633,0.238 0.237,0 0.444,-0.079 0.624,-0.241 0.174,-0.157 0.264,-0.38 0.264,-0.662 0,-0.243 -0.089,-0.454 -0.264,-0.626 -0.18,-0.17 -0.391,-0.257 -0.639,-0.257 z" />
				<path
   id="XMLID_385_"
   style="fill:#a8d1ff"
   d="m 306.835,478.417 c -0.167,0 -0.308,0.054 -0.422,0.156 -0.113,0.104 -0.219,0.245 -0.318,0.427 -0.178,0.309 -0.381,0.538 -0.616,0.689 -0.231,0.15 -0.509,0.225 -0.835,0.225 -0.24,0 -0.463,-0.045 -0.665,-0.141 -0.201,-0.093 -0.372,-0.229 -0.516,-0.409 -0.143,-0.18 -0.252,-0.398 -0.325,-0.652 -0.075,-0.256 -0.114,-0.537 -0.114,-0.842 0,-0.646 0.147,-1.161 0.439,-1.534 0.294,-0.375 0.682,-0.561 1.158,-0.561 0.333,0 0.607,0.075 0.821,0.227 0.219,0.148 0.424,0.375 0.622,0.674 0.109,0.158 0.209,0.269 0.299,0.339 0.09,0.068 0.201,0.104 0.338,0.104 0.202,0 0.377,-0.068 0.524,-0.203 0.143,-0.135 0.214,-0.3 0.214,-0.492 0,-0.192 -0.063,-0.397 -0.192,-0.617 -0.128,-0.218 -0.314,-0.424 -0.556,-0.62 -0.245,-0.192 -0.54,-0.352 -0.89,-0.474 -0.353,-0.123 -0.737,-0.184 -1.157,-0.184 -0.674,0 -1.26,0.138 -1.746,0.419 -0.486,0.279 -0.859,0.674 -1.113,1.183 -0.259,0.511 -0.387,1.098 -0.387,1.765 0,0.981 0.281,1.764 0.841,2.349 0.562,0.582 1.344,0.876 2.348,0.876 0.469,0 0.893,-0.065 1.269,-0.192 0.377,-0.126 0.688,-0.295 0.934,-0.502 0.248,-0.207 0.434,-0.425 0.554,-0.656 0.121,-0.229 0.182,-0.446 0.182,-0.646 0,-0.169 -0.066,-0.331 -0.198,-0.481 -0.13,-0.151 -0.295,-0.227 -0.493,-0.227 z" />
				<path
   id="XMLID_382_"
   style="fill:#a8d1ff"
   d="m 313.647,475.453 c -0.288,-0.29 -0.629,-0.518 -1.027,-0.674 -0.4,-0.161 -0.846,-0.239 -1.336,-0.239 -0.483,0 -0.924,0.078 -1.326,0.234 -0.399,0.158 -0.737,0.38 -1.019,0.669 -0.281,0.288 -0.498,0.636 -0.649,1.045 -0.146,0.408 -0.224,0.858 -0.224,1.349 0,0.485 0.076,0.929 0.219,1.332 0.152,0.402 0.369,0.75 0.657,1.048 0.285,0.292 0.627,0.521 1.016,0.676 0.392,0.159 0.835,0.239 1.326,0.239 0.492,0 0.937,-0.08 1.336,-0.234 0.394,-0.158 0.735,-0.382 1.02,-0.675 0.286,-0.291 0.502,-0.641 0.656,-1.05 0.146,-0.408 0.222,-0.855 0.222,-1.336 0,-0.489 -0.075,-0.932 -0.221,-1.339 -0.149,-0.402 -0.364,-0.749 -0.65,-1.045 z m -1.192,3.915 c -0.29,0.372 -0.682,0.557 -1.171,0.557 -0.324,0 -0.605,-0.086 -0.846,-0.253 -0.24,-0.168 -0.423,-0.409 -0.553,-0.729 -0.129,-0.317 -0.194,-0.684 -0.194,-1.108 0,-0.428 0.066,-0.803 0.197,-1.125 0.131,-0.321 0.314,-0.563 0.556,-0.727 0.242,-0.164 0.522,-0.246 0.84,-0.246 0.489,0 0.881,0.182 1.171,0.555 0.289,0.367 0.436,0.881 0.436,1.543 0,0.652 -0.147,1.164 -0.436,1.533 z" />
				<path
   id="XMLID_381_"
   style="fill:#a8d1ff"
   d="m 323.569,474.813 c -0.32,-0.173 -0.705,-0.262 -1.146,-0.262 -0.381,0 -0.726,0.081 -1.039,0.241 -0.313,0.161 -0.607,0.408 -0.881,0.738 -0.191,-0.326 -0.431,-0.572 -0.725,-0.735 -0.292,-0.162 -0.641,-0.243 -1.048,-0.243 -0.394,0 -0.748,0.079 -1.07,0.241 -0.319,0.156 -0.619,0.403 -0.903,0.738 v -0.153 c 0,-0.261 -0.074,-0.466 -0.222,-0.616 -0.15,-0.145 -0.334,-0.221 -0.557,-0.221 -0.227,0 -0.412,0.078 -0.555,0.239 -0.14,0.157 -0.21,0.389 -0.21,0.694 v 4.636 c 0,0.336 0.078,0.591 0.235,0.765 0.156,0.171 0.357,0.257 0.604,0.257 0.248,0 0.447,-0.087 0.603,-0.257 0.15,-0.173 0.226,-0.428 0.226,-0.765 v -2.188 c 0,-0.684 0.086,-1.206 0.253,-1.566 0.168,-0.369 0.516,-0.551 1.048,-0.551 0.263,0 0.459,0.072 0.581,0.22 0.122,0.142 0.198,0.331 0.226,0.552 0.027,0.226 0.04,0.544 0.04,0.953 v 2.581 c 0,0.341 0.078,0.594 0.232,0.767 0.148,0.17 0.349,0.255 0.594,0.255 0.254,0 0.455,-0.085 0.611,-0.255 0.156,-0.173 0.231,-0.426 0.231,-0.767 v -2.154 c 0,-0.694 0.062,-1.178 0.178,-1.452 0.109,-0.209 0.259,-0.383 0.45,-0.508 0.192,-0.125 0.395,-0.192 0.609,-0.192 0.264,0 0.463,0.072 0.596,0.215 0.128,0.142 0.209,0.319 0.239,0.529 0.029,0.209 0.043,0.486 0.043,0.836 v 2.725 c 0,0.336 0.079,0.591 0.235,0.765 0.157,0.171 0.356,0.257 0.603,0.257 0.253,0 0.458,-0.085 0.612,-0.255 0.154,-0.173 0.229,-0.426 0.229,-0.767 v -3.163 c 0,-0.629 -0.068,-1.091 -0.206,-1.385 -0.157,-0.325 -0.397,-0.575 -0.716,-0.749 z" />
			</g>
			<g
   id="XMLID_366_">
				<path
   id="XMLID_379_"
   style="fill:#a8d1ff"
   d="m 245.273,477.444 c -0.001,-0.004 -0.001,-0.006 -0.001,-0.011 0,0.005 0,0.007 0.001,0.011 z" />
				<path
   id="XMLID_378_"
   style="fill:#a8d1ff"
   d="m 245.355,477.961 c 0.001,0 0.001,0 0.001,0 -0.031,-0.147 -0.055,-0.294 -0.073,-0.438 0.018,0.146 0.043,0.293 0.072,0.438 z" />
				<path
   id="XMLID_377_"
   style="fill:#a8d1ff"
   d="m 245.891,479.466 c -0.004,-0.006 -0.007,-0.013 -0.01,-0.021 0.004,0.007 0.007,0.015 0.01,0.021 z" />
				<path
   id="XMLID_376_"
   style="fill:#a8d1ff"
   d="m 245.84,479.366 c -0.014,-0.027 -0.027,-0.056 -0.041,-0.084 0.014,0.029 0.027,0.056 0.041,0.084 z" />
				<path
   id="XMLID_375_"
   style="fill:#a8d1ff"
   d="m 245.506,478.541 c 0.079,0.25 0.175,0.492 0.286,0.724 -0.113,-0.236 -0.206,-0.479 -0.284,-0.724 z" />
				<path
   id="XMLID_374_"
   style="fill:#a8d1ff"
   d="m 250.736,470.681 -0.076,-0.259 c 0.299,-0.063 0.524,-0.329 0.524,-0.646 0,-0.364 -0.297,-0.659 -0.66,-0.659 -0.365,0 -0.66,0.295 -0.66,0.659 0,0.317 0.225,0.583 0.522,0.646 l 0.084,0.289 c -1.021,0.14 -1.834,0.539 -1.834,0.539 l 0.144,0.441 c 0.618,-0.206 1.153,-0.331 1.64,-0.383 0.476,-0.051 0.834,-0.073 1.126,-0.073 0.314,0 0.544,0.025 0.809,0.069 l 0.075,-0.476 c -0.001,0 -0.732,-0.225 -1.694,-0.147 z" />
				<path
   id="XMLID_373_"
   style="fill:#a8d1ff"
   d="m 245.453,473.188 c -0.017,0.024 -0.497,0.465 -0.876,1.28 -0.016,-0.026 -0.035,-0.051 -0.056,-0.074 -0.113,-0.124 -0.272,-0.187 -0.473,-0.184 -0.002,0 -0.006,0 -0.01,0 -0.124,0 -0.21,-0.042 -0.266,-0.092 0.055,-0.071 0.089,-0.16 0.089,-0.258 0,-0.231 -0.187,-0.419 -0.419,-0.419 -0.23,0 -0.417,0.188 -0.417,0.419 0,0.231 0.187,0.417 0.417,0.417 0.037,0 0.071,-0.005 0.105,-0.012 0.102,0.113 0.265,0.214 0.504,0.209 0.123,-10e-4 0.214,0.03 0.273,0.097 0.07,0.076 0.093,0.185 0.1,0.267 -0.001,0.002 -0.001,0.004 -0.002,0.004 -0.272,0.743 -0.195,1.668 -0.195,1.668 l 0.661,0.026 c 0.013,-0.336 0.062,-0.926 0.232,-1.393 0.328,-0.906 0.741,-1.472 0.757,-1.496 l 0.004,-0.005 c 0.024,-0.031 0.047,-0.06 0.071,-0.089 l -0.196,-0.142 z" />
				<path
   id="XMLID_372_"
   style="fill:#a8d1ff"
   d="m 257.294,471.787 c -0.23,0 -0.418,0.187 -0.418,0.417 0,0.037 0.006,0.071 0.015,0.104 -0.115,0.104 -0.214,0.267 -0.211,0.507 0.002,0.123 -0.03,0.212 -0.096,0.273 -0.053,0.047 -0.12,0.072 -0.185,0.088 -0.492,-0.689 -1.097,-1.109 -1.097,-1.109 l -0.474,0.508 c 0.358,0.326 0.724,0.734 1.08,1.244 0.246,0.352 0.499,0.806 0.71,1.259 l 0.64,-0.304 c 0,0 -0.292,-0.722 -0.704,-1.369 0.071,-0.025 0.143,-0.064 0.207,-0.12 0.125,-0.113 0.187,-0.273 0.183,-0.474 -0.001,-0.13 0.042,-0.218 0.093,-0.276 0.071,0.054 0.16,0.089 0.257,0.089 0.232,0 0.419,-0.187 0.419,-0.419 -0.001,-0.231 -0.188,-0.418 -0.419,-0.418 z" />
				<path
   id="XMLID_371_"
   style="fill:#a8d1ff"
   d="m 255.633,477.537 c -0.88,0.429 -2.33,0.996 -4.237,1.262 -0.749,0.104 -1.474,0.142 -2.143,0.142 -0.869,0 -1.637,-0.065 -2.226,-0.139 -0.672,-0.085 -1.198,-0.188 -1.52,-0.261 0.078,0.245 0.171,0.487 0.284,0.724 0.002,0.006 0.005,0.013 0.008,0.017 0.014,0.027 0.027,0.056 0.041,0.084 0.013,0.027 0.027,0.054 0.041,0.079 0.004,0.007 0.007,0.015 0.01,0.021 0.189,0.356 0.417,0.684 0.675,0.968 0.9,0.984 1.816,1.139 1.825,1.141 l 0.015,0.002 0.013,0.005 c 0.009,0.003 0.821,0.265 2.057,0.265 1.216,0 2.409,-0.245 3.545,-0.729 0.842,-0.431 1.639,-1.085 2.033,-1.668 0.305,-0.452 0.526,-0.934 0.656,-1.434 0.07,-0.266 0.125,-0.693 0.092,-1.141 -0.247,0.167 -0.639,0.404 -1.169,0.662 z" />
				<path
   id="XMLID_367_"
   style="fill:#a8d1ff"
   d="m 252.322,471.655 c -0.264,-0.043 -0.477,-0.068 -0.777,-0.068 -0.279,0 -0.626,0.023 -1.089,0.071 -0.465,0.049 -0.982,0.171 -1.583,0.373 -0.842,0.282 -1.604,0.724 -2.204,1.28 l -0.02,0.019 c -0.089,0.081 -0.275,0.254 -0.488,0.525 -0.026,0.037 -0.408,0.578 -0.709,1.408 -0.226,0.622 -0.216,1.527 -0.216,1.537 v 0.002 c 0,0.212 0.012,0.423 0.035,0.632 0,0.005 0,0.007 0.001,0.011 0.003,0.027 0.007,0.053 0.01,0.079 0.018,0.144 0.043,0.291 0.074,0.438 0.438,0.112 3.048,0.721 5.966,0.314 1.829,-0.255 3.218,-0.795 4.061,-1.204 0.701,-0.34 1.151,-0.647 1.325,-0.774 -0.173,-0.643 -0.651,-1.65 -1.089,-2.279 -1.252,-1.79 -2.603,-2.25 -3.297,-2.364 z m -3.643,5.259 c -0.971,0 -1.759,-0.787 -1.759,-1.759 0,-0.972 0.788,-1.76 1.759,-1.76 0.973,0 1.761,0.788 1.761,1.76 -0.001,0.972 -0.788,1.759 -1.761,1.759 z m 5.15,-1.297 c -0.601,0 -1.089,-0.489 -1.089,-1.09 0,-0.602 0.487,-1.089 1.089,-1.089 0.601,0 1.089,0.487 1.089,1.089 0,0.601 -0.489,1.09 -1.089,1.09 z" />
			</g>
		</g>
	</g>
</g>
</svg>
